<?xml version="1.0" encoding="utf-8"?>
<!-- Generator: Adobe Illustrator 18.0.0, SVG Export Plug-In . SVG Version: 6.00 Build 0)  -->
<!DOCTYPE svg PUBLIC "-//W3C//DTD SVG 1.1//EN" "http://www.w3.org/Graphics/SVG/1.1/DTD/svg11.dtd">
<svg version="1.1" id="Слой_1" xmlns="http://www.w3.org/2000/svg" xmlns:xlink="http://www.w3.org/1999/xlink" x="0px" y="0px"
	 viewBox="0 0 600 600" enable-background="new 0 0 600 600" xml:space="preserve">
<path fill="#2F2F2F" d="M551.7,600H48.3C21.7,600,0,577.9,0,550.7V67.4c0-2.9,2.3-5.2,5.1-5.2h589.8c2.8,0,5.1,2.3,5.1,5.2v483.3
	C600,577.9,578.3,600,551.7,600z M10.2,72.5v478.1c0,21.5,17.1,38.9,38.2,38.9h503.3c21,0,38.2-17.5,38.2-38.9V72.5H10.2z"/>
<path fill="#B2B2B2" d="M551.7,3H48.3C24.5,3,5.1,21.4,5.1,44.1v24.1h589.8V44.1C594.9,21.4,575.5,3,551.7,3z"/>
<path fill="#2F2F2F" d="M594.9,74.8H5.1C2.3,74.8,0,72.6,0,70V45.9C0,20.6,21.7,0,48.3,0h503.3C578.3,0,600,20.6,600,45.9V70
	C600,72.6,597.7,74.8,594.9,74.8z M10.2,65.1h579.6V45.9c0-20-17.1-36.2-38.2-36.2H48.3c-21,0-38.2,16.3-38.2,36.2V65.1z"/>
<ellipse fill="#DF6868" cx="51.2" cy="39.3" rx="13" ry="12.3"/>
<path fill="#272425" d="M51.2,54.5c-8.8,0-16-6.8-16-15.2s7.2-15.2,16-15.2s16,6.8,16,15.2S60,54.5,51.2,54.5z M51.2,29.9
	c-5.5,0-9.9,4.2-9.9,9.4s4.5,9.4,9.9,9.4s9.9-4.2,9.9-9.4S56.6,29.9,51.2,29.9z"/>
<ellipse fill="#C9DB94" cx="136.1" cy="39.3" rx="13" ry="12.3"/>
<path fill="#272425" d="M136.1,54.5c-8.8,0-16-6.8-16-15.2s7.2-15.2,16-15.2s16,6.8,16,15.2S144.9,54.5,136.1,54.5z M136.1,29.9
	c-5.5,0-9.9,4.2-9.9,9.4s4.5,9.4,9.9,9.4s9.9-4.2,9.9-9.4S141.6,29.9,136.1,29.9z"/>
<ellipse fill="#EBC465" cx="93.7" cy="39.3" rx="13" ry="12.3"/>
<path fill="#272425" d="M93.7,54.5c-8.8,0-16-6.8-16-15.2s7.2-15.2,16-15.2s16,6.8,16,15.2S102.5,54.5,93.7,54.5z M93.7,29.9
	c-5.5,0-9.9,4.2-9.9,9.4s4.5,9.4,9.9,9.4s9.9-4.2,9.9-9.4S99.1,29.9,93.7,29.9z"/>
<path fill="#FCD859" stroke="#A0A0A0" stroke-width="1.9461" stroke-miterlimit="10" d="M476.8,251.3H45.3c-7.1,0-13-5.9-13-13
	v-57.6c0-7.1,5.9-13,13-13h431.6c7.2,0,13,5.9,13,13v57.6C489.8,245.4,484,251.3,476.8,251.3z"/>
<path fill="#EAEAEA" stroke="#A0A0A0" stroke-width="2.0015" stroke-miterlimit="10" d="M152.8,251.3H43.7
	c-6.3,0-11.4-4.9-11.4-10.9v-61.9c0-6,5.1-10.9,11.4-10.9h109.1"/>
<text transform="matrix(1.0526 0 0 1 186.3442 229.7451)" font-family="'ArialMT'" font-size="50.1572">Перевести</text>
<path fill="#FCD859" stroke="#A0A0A0" stroke-width="1.8672" stroke-miterlimit="10" d="M440.5,497.5H45.3c-7.1,0-13-5.9-13-13
	v-57.6c0-7.1,5.9-13,13-13h395.2c7.1,0,13,5.9,13,13v57.6C453.5,491.6,447.6,497.5,440.5,497.5z"/>
<path fill="#EAEAEA" stroke="#A0A0A0" stroke-width="2.0015" stroke-miterlimit="10" d="M152.8,497.5H43.7
	c-6.3,0-11.4-4.9-11.4-10.9v-61.9c0-6,5.1-10.9,11.4-10.9h109.1"/>
<text transform="matrix(1.0526 0 0 1 186.3442 475.9302)" font-family="'ArialMT'" font-size="50.1572">Оплатить</text>
<path fill="#FCD859" stroke="#A0A0A0" stroke-width="2.0969" stroke-miterlimit="10" d="M550.5,375.2H45.3c-7.1,0-13-5.9-13-13
	v-57.6c0-7.1,5.9-13,13-13h505.2c7.2,0,13,5.9,13,13v57.6C563.5,369.4,557.6,375.2,550.5,375.2z"/>
<path fill="#EAEAEA" stroke="#A0A0A0" stroke-width="2.0015" stroke-miterlimit="10" d="M152.8,375.2H43.7
	c-6.3,0-11.4-4.9-11.4-10.9v-61.9c0-6,5.1-10.9,11.4-10.9h109.1"/>
<path fill="#FFD100" d="M65.4,333.3c0-3.6,0.2-6,8.2-11.6c6.5-4.6,27.5-20.5,27.5-20.5v26.5h16v38H70.3c-2.7,0-5-2.1-5-4.7
	L65.4,333.3L65.4,333.3z"/>
<polygon fill="#CCA700" points="101.1,327.7 101.1,343 71.9,362 109,350.6 109,327.7 "/>
<path d="M87.8,326.9c1.7-2,4.2-2.6,5.6-1.5c1.4,1.1,1,3.6-0.6,5.4c-1.7,2-4.2,2.6-5.6,1.5C85.8,331.3,86,328.8,87.8,326.9"/>
<text transform="matrix(1.0526 0 0 1 186.3442 353.6958)" font-family="'ArialMT'" font-size="50.1572">Пожертвовать</text>
<polygon fill="#FFFFFF" stroke="#2F2F2F" stroke-width="9.2338" stroke-miterlimit="10" points="445,481.3 422.8,367.5 528,427.7 
	490.6,436.8 517.9,474.1 494.4,489.2 467.3,452.8 "/>
<path d="M110.3,210.2c0,8.6,0,17.2,0,25.7c0,4.8-2.4,7.1-7.4,7.1c-7.7,0-15.4,0-23.2,0c-4.7,0-7.2-2.3-7.2-6.8c0-17.4,0-34.8,0-52.2
	c0-4.5,2.4-6.8,7.1-6.8c7.8,0,15.6,0,23.4,0c4.8,0,7.2,2.3,7.2,7C110.3,192.9,110.3,201.6,110.3,210.2z M75.7,183.2
	c0,15.1,0,30,0,44.9c10.5,0,20.9,0,31.3,0c0-15.1,0-30,0-44.9C96.5,183.2,86.2,183.2,75.7,183.2z M88.3,237.1c2.2,0,4.2,0,6.2,0
	c0-1,0-1.9,0-2.8c-2.2,0-4.2,0-6.2,0C88.3,235.3,88.3,236.1,88.3,237.1z"/>
<path d="M99.1,451.6c5.4,0,10.9,0,16.3,0c4.7,0,7.1,2.3,7.2,6.8c0,6.4,0,12.8,0,19.3c0,4.5-2.5,6.8-7.2,6.8c-11,0-21.9,0-32.9,0
	c-4.7,0-7.1-2.3-7.2-6.8c0-6.4,0-12.8,0-19.3c0-4.5,2.4-6.8,7.2-6.8C88,451.5,93.6,451.6,99.1,451.6z M78.4,466.5
	c0,4.1-0.1,8,0,11.9c0.1,1.9,1.3,3.1,3.4,3.1c11.5,0,22.9,0.1,34.4-0.1c1.1,0,3.1-1.4,3.1-2.3c0.3-4.2,0.1-8.4,0.1-12.6
	C105.7,466.5,92.2,466.5,78.4,466.5z M119.4,460.5c0.4-5.3-0.3-6-5.5-6c-10.1,0-20.1,0-30.2,0c-5,0-6,1.2-5,6
	C92.2,460.5,105.7,460.5,119.4,460.5z"/>
<path d="M106.6,448.4c-6.4,0-12.2,0-18.1,0c-2.2,0-4.4,0-6.6,0c-5.9,0.1-9.8,3.8-9.9,9.4c-0.1,6.8,0,13.7,0,20.5c0,0.5,0,1.1,0,2.2
	c-0.8-0.9-1.2-1.3-1.5-1.7c-3.7-6-7.3-11.9-10.9-17.9c-1.7-2.9-1-6.2,2-7.9c10.2-5.7,20.4-11.3,30.7-16.8c2.6-1.4,5.8-0.8,7.3,1.4
	C102.1,441,104.2,444.5,106.6,448.4z"/>
</svg>
